<svg width="32" height="32" viewBox="0 0 32 32" fill="none" xmlns="http://www.w3.org/2000/svg">
<path d="M30 16H28V4H16V2H28C28.5303 2.00053 29.0387 2.21141 29.4136 2.58637C29.7886 2.96133 29.9995 3.46973 30 4V16Z" fill="black"/>
<path d="M25 23H23V9H9V7H23C23.5303 7.00053 24.0387 7.21141 24.4136 7.58637C24.7886 7.96133 24.9995 8.46973 25 9V23Z" fill="black"/>
<path d="M18 30H4C3.46973 29.9995 2.96133 29.7886 2.58637 29.4136C2.21141 29.0387 2.00053 28.5303 2 28V14C2.00053 13.4697 2.21141 12.9613 2.58637 12.5864C2.96133 12.2114 3.46973 12.0005 4 12H18C18.5303 12.0005 19.0387 12.2114 19.4136 12.5864C19.7886 12.9613 19.9995 13.4697 20 14V28C19.9992 28.5302 19.7882 29.0384 19.4133 29.4133C19.0384 29.7882 18.5302 29.9992 18 30ZM4 14V28H18.002L18 14H4Z" fill="black"/>
<path d="M12.4453 17H14.375V22.1602C14.375 22.7565 14.2331 23.276 13.9492 23.7187C13.6654 24.1589 13.2695 24.5 12.7617 24.7422C12.2539 24.9818 11.6641 25.1016 10.9922 25.1016C10.3125 25.1016 9.71875 24.9818 9.21094 24.7422C8.70313 24.5 8.30859 24.1589 8.02734 23.7187C7.74609 23.276 7.60547 22.7565 7.60547 22.1602V17H9.53906V21.9922C9.53906 22.2682 9.59896 22.5143 9.71875 22.7305C9.84115 22.9466 10.0117 23.1159 10.2305 23.2383C10.4492 23.3607 10.7031 23.4219 10.9922 23.4219C11.2813 23.4219 11.5339 23.3607 11.75 23.2383C11.9688 23.1159 12.1393 22.9466 12.2617 22.7305C12.3841 22.5143 12.4453 22.2682 12.4453 21.9922V17Z" fill="black"/>
</svg>
